<svg width="762" height="374" viewBox="0 0 762 374" fill="none" xmlns="http://www.w3.org/2000/svg">
<path d="M711 373C733.091 373 751.163 355.087 750.394 333.009C747.777 257.89 734.768 177.251 676.457 126.361C607.605 66.2701 487.655 12 390.282 12C292.91 12 163.964 66.2701 95.1107 126.361C36.7956 177.254 17.643 257.902 13.1465 333.025C11.8266 355.077 29.9086 373 52 373H390.282H711Z" fill="#DD7835"/>
<path d="M333 21C257.861 26.0581 154.133 73.4642 78.525 141.789C48.9457 168.52 -45.7413 372.961 62.7706 368.942C32.6672 337.937 46.2761 293.451 50.8691 267.89C60.6701 213.344 85.3162 175.469 121.448 137C177.104 77.7464 251.728 45.7849 333 21Z" fill="#FFCEAE"/>
<path d="M561.267 50C561.267 50 598.5 172.512 576.023 232.958C547.618 309.348 517 368.963 517 368.963C517 368.963 697.123 380.297 727.652 368.963C758.181 357.629 749.775 291.2 732.254 217.143C703.73 96.5766 561.267 50 561.267 50Z" fill="#9E4F1B"/>
<path d="M680.858 123.055C739.087 173.978 752.336 255.356 754.924 333.227C755.53 351.473 740.58 366.5 722 366.5H390.056H40C21.3813 366.5 6.55342 351.465 7.59343 333.399C12.0567 255.869 31.5384 174.161 89.9764 123.055C124.786 92.6127 175.088 63.4173 229.255 41.8364C283.434 20.2501 340.934 6.5 390.056 6.5C488.576 6.50001 610.792 61.7798 680.858 123.055Z" stroke="black" stroke-width="13"/>
<ellipse cx="342.194" cy="113.82" rx="10" ry="6.5" transform="rotate(-53.2205 342.194 113.82)" fill="#F2F2F2"/>
<ellipse cx="296.896" cy="97.0901" rx="10" ry="6.5" transform="rotate(-28.8783 296.896 97.0901)" fill="#F2F2F2"/>
<ellipse cx="388.018" cy="105.443" rx="10" ry="6.5" transform="rotate(85.8613 388.018 105.443)" fill="#F2F2F2"/>
<ellipse cx="433.33" cy="108.861" rx="10" ry="6.5" transform="rotate(63.0163 433.33 108.861)" fill="#F2F2F2"/>
<ellipse cx="478.109" cy="92.9145" rx="10" ry="6.5" transform="rotate(54.3676 478.109 92.9145)" fill="#F2F2F2"/>
<circle cx="210.5" cy="229.5" r="7.5" fill="#9E4F1B"/>
<circle cx="241.5" cy="236.5" r="7.5" fill="#9E4F1B"/>
<ellipse cx="218" cy="269" rx="13" ry="12" fill="#9E4F1B"/>
<ellipse cx="480.5" cy="254" rx="4.5" ry="5" fill="#9E4F1B"/>
<circle cx="496.5" cy="281.5" r="6.5" fill="#9E4F1B"/>
<ellipse cx="509" cy="236.5" rx="12" ry="12.5" fill="#9E4F1B"/>
</svg>
