<svg width="862" height="135" viewBox="0 0 862 135" fill="none" xmlns="http://www.w3.org/2000/svg">
<path d="M46.8421 45.8395C68.5598 32.0013 811.819 40.1623 811.819 40.1623C811.819 40.1623 842.336 47.9122 851.387 67.5329C860.438 87.1535 853.993 113.505 823.397 116.754C796.605 119.599 793.205 107.606 749.21 108.128C726.844 108.393 716.395 103.828 695.217 108.768C662.637 116.367 644.433 100.777 610.031 100.272C572.838 99.7261 580.679 122.022 543.473 122.111C507.321 122.198 487.923 92.5662 451.827 91.2842C409.686 89.7875 412.594 120.933 370.41 120.09C332.519 119.332 326.151 98.6286 289.071 104.079C260.26 108.313 252.755 123.427 223.512 125.906C189.527 128.787 167.184 99.0437 132.95 99.14C100.254 99.232 93.2191 128.282 60.5319 127.839C29.8656 127.424 16.5901 116.678 8.88126 96.5375C0.342463 74.2287 21.3664 62.0723 46.8421 45.8395Z" fill="#8FC14E" stroke="black" stroke-width="13"/>
<path d="M820.668 34.7489L541.275 31C541.275 31 486.221 94.7582 517.742 118.474C545.777 139.566 609.371 93.4812 609.371 93.4812L674.462 106.811H747.565L833.686 112.226C833.686 112.226 857.589 87.112 852.212 71.8211C846.835 56.5301 820.668 34.7489 820.668 34.7489Z" fill="#698D3B"/>
<path d="M46.8421 45.8395C68.5598 32.0013 811.819 40.1623 811.819 40.1623C811.819 40.1623 842.336 47.9122 851.387 67.5329C860.438 87.1535 853.993 113.505 823.397 116.754C796.605 119.599 793.205 107.606 749.21 108.128C726.844 108.393 716.395 103.828 695.217 108.768C662.637 116.367 644.433 100.777 610.031 100.272C572.838 99.7261 580.679 122.022 543.473 122.111C507.321 122.198 487.923 92.5662 451.827 91.2842C409.686 89.7875 412.594 120.933 370.41 120.09C332.519 119.332 326.151 98.6286 289.071 104.079C260.26 108.313 252.755 123.427 223.512 125.906C189.527 128.787 167.184 99.0437 132.95 99.14C100.254 99.232 93.2191 128.282 60.5319 127.839C29.8656 127.424 16.5901 116.678 8.88126 96.5375C0.342463 74.2287 21.3664 62.0723 46.8421 45.8395Z" stroke="black" stroke-width="13"/>
</svg>
